<svg id="Camada_1" data-name="Camada 1" xmlns="http://www.w3.org/2000/svg" viewBox="0 0 174 119"><defs><style>.cls-1{fill:#3c393a;}.cls-2{fill:#7fbde9;}</style></defs><title>Prancheta 1</title><path class="cls-1" d="M49,67a1.84,1.84,0,0,1,1.84,1.84,1.91,1.91,0,0,1-.58,1.36,12.89,12.89,0,0,1-17.5-.67,12.88,12.88,0,0,1,0-18.21,12.89,12.89,0,0,1,17.5-.67,1.84,1.84,0,0,1,.64,1.43,1.85,1.85,0,0,1-1.84,1.84,1.79,1.79,0,0,1-1.17-.41,9.17,9.17,0,0,0-12.53.41,9.2,9.2,0,0,0,6.51,15.7,8.78,8.78,0,0,0,6-2.25A1.8,1.8,0,0,1,49,67Z"/><path class="cls-1" d="M78.66,71.47a1.84,1.84,0,0,1-3.68,0V70a12,12,0,0,1-20.23-8.62v-12a1.84,1.84,0,0,1,3.68,0v12a8.28,8.28,0,0,0,16.55,0v-12a1.84,1.84,0,0,1,3.68,0Z"/><path class="cls-1" d="M88.31,42a2.31,2.31,0,1,1-.68-1.62A2.22,2.22,0,0,1,88.31,42ZM84.18,49.4a1.84,1.84,0,0,1,3.68,0V71.47a1.84,1.84,0,0,1-3.68,0Z"/><path class="cls-1" d="M115.45,38.32a1.84,1.84,0,0,1,3.68,0V60.44a12.88,12.88,0,1,1-22-9.11,12.88,12.88,0,0,1,18.21,0l.09.09Zm0,22.12a9.19,9.19,0,1,0-2.69,6.51A8.87,8.87,0,0,0,115.45,60.44Z"/><path class="cls-1" d="M144.88,69.45a12.56,12.56,0,0,1-9.2,3.86,12.87,12.87,0,0,1-12.88-12.88,12.88,12.88,0,1,1,25.75,0v11a1.84,1.84,0,0,1-3.68,0Zm-9.2-18.21a9.2,9.2,0,0,0-6.51,15.7,9.2,9.2,0,0,0,13-13A8.86,8.86,0,0,0,135.68,51.24Z"/><path class="cls-1" d="M152.24,49.4a1.84,1.84,0,0,1,3.68,0v2a12.56,12.56,0,0,1,9.2-3.86,13,13,0,0,1,4.94.92,2.37,2.37,0,0,1,.76.48,1.83,1.83,0,0,1,.53,1.31,1.84,1.84,0,0,1-2.65,1.66,9.12,9.12,0,0,0-3.59-.69,9.18,9.18,0,0,0-9.2,9.2v11a1.84,1.84,0,0,1-3.68,0Z"/><path class="cls-1" d="M29.84,80.74a1.65,1.65,0,0,1-.59-.33,1.06,1.06,0,0,1-.33-.79,1.1,1.1,0,0,1,.34-.8A2.34,2.34,0,0,1,31,78.13a2.59,2.59,0,0,1,2,.93.31.31,0,0,1,.07.22.37.37,0,0,1-.37.37.32.32,0,0,1-.25-.1l-.14-.14A1.79,1.79,0,0,0,31,78.88a1.62,1.62,0,0,0-1.23.48.49.49,0,0,0-.11.32.32.32,0,0,0,.23.3l2.29.76a1.65,1.65,0,0,1,.59.33,1.06,1.06,0,0,1,.33.79,1.1,1.1,0,0,1-.34.8,2.34,2.34,0,0,1-1.75.68,2.58,2.58,0,0,1-2-.93.38.38,0,0,1,0-.48.36.36,0,0,1,.26-.11.32.32,0,0,1,.25.1l.13.14A1.8,1.8,0,0,0,31,82.6a1.62,1.62,0,0,0,1.23-.48.48.48,0,0,0,.11-.32.32.32,0,0,0-.23-.3Z"/><path class="cls-1" d="M38.31,82.56a2.54,2.54,0,0,1-1.86.78,2.61,2.61,0,1,1,2.61-2.61V83a.37.37,0,0,1-.74,0Zm-1.86-3.68a1.86,1.86,0,1,0,1.32.54A1.79,1.79,0,0,0,36.45,78.88Z"/><path class="cls-1" d="M44.64,83a.37.37,0,0,1-.74,0v-.3a2.42,2.42,0,0,1-4.09-1.75V78.51a.37.37,0,0,1,.74,0v2.42a1.67,1.67,0,0,0,3.35,0V78.51a.37.37,0,0,1,.74,0ZM43,76.53l-1.13,1.13a.37.37,0,0,1-.26.1.37.37,0,0,1-.37-.37.37.37,0,0,1,.09-.25L42.51,76a.37.37,0,0,1,.27-.11.37.37,0,0,1,.37.37A.37.37,0,0,1,43,76.53Z"/><path class="cls-1" d="M49.85,76.26a.37.37,0,0,1,.74,0v4.47a2.61,2.61,0,1,1-.76-1.84l0,0Zm0,4.47a1.86,1.86,0,1,0-.54,1.32A1.79,1.79,0,0,0,49.85,80.74Z"/><path class="cls-1" d="M55.38,82.08a.37.37,0,0,1,.37.37.37.37,0,0,1-.11.26,2.61,2.61,0,1,1,.91-2,.37.37,0,0,1-.37.37H52.11a1.87,1.87,0,0,0,1.83,1.49,1.75,1.75,0,0,0,1.2-.44A.37.37,0,0,1,55.38,82.08Zm.39-1.71a1.87,1.87,0,0,0-3.66,0Z"/><path class="cls-1" d="M57.46,83.18a.54.54,0,0,1-.16-.4.56.56,0,0,1,1-.39.53.53,0,0,1,.16.39,2.71,2.71,0,0,1-.4,1.53.28.28,0,0,1-.45.07.27.27,0,0,1-.08-.2.26.26,0,0,1,.08-.2Q57.88,83.62,57.46,83.18Z"/><path class="cls-1" d="M62.69,85.2a.37.37,0,0,1-.74,0V80.74a2.61,2.61,0,1,1,.76,1.84l0,0Zm0-4.47a1.86,1.86,0,1,0,.54-1.32A1.79,1.79,0,0,0,62.69,80.74Z"/><path class="cls-1" d="M67.9,78.51a.37.37,0,0,1,.74,0v.41a2.54,2.54,0,0,1,1.86-.78,2.62,2.62,0,0,1,1,.19.53.53,0,0,1,.15.1.37.37,0,0,1,.11.27.36.36,0,0,1-.11.26.37.37,0,0,1-.43.07,1.84,1.84,0,0,0-.72-.14,1.86,1.86,0,0,0-1.86,1.86V83a.37.37,0,0,1-.74,0Z"/><path class="cls-1" d="M76.4,82.08a.37.37,0,0,1,.37.37.37.37,0,0,1-.11.26,2.61,2.61,0,1,1,.91-2,.37.37,0,0,1-.37.37H73.14A1.87,1.87,0,0,0,75,82.6a1.75,1.75,0,0,0,1.2-.44A.37.37,0,0,1,76.4,82.08Zm.39-1.71a1.87,1.87,0,0,0-3.66,0Z"/><path class="cls-1" d="M80.72,83.24a.36.36,0,0,1-.26.1.35.35,0,0,1-.26-.11.24.24,0,0,1-.06-.09l-2.07-4.5a.37.37,0,0,1,0-.14.37.37,0,0,1,.37-.37.37.37,0,0,1,.26.11.38.38,0,0,1,.07.1l1.71,3.74,1.71-3.74a.34.34,0,0,1,.07-.1.37.37,0,0,1,.63.26.37.37,0,0,1,0,.14l-2.07,4.5A.32.32,0,0,1,80.72,83.24Z"/><path class="cls-1" d="M87.43,82.08a.37.37,0,0,1,.37.37.37.37,0,0,1-.11.26,2.61,2.61,0,1,1,.91-2,.37.37,0,0,1-.37.37H84.17A1.87,1.87,0,0,0,86,82.6a1.75,1.75,0,0,0,1.2-.44A.37.37,0,0,1,87.43,82.08Zm.39-1.71a1.87,1.87,0,0,0-3.66,0Z"/><path class="cls-1" d="M89.35,78.51a.37.37,0,0,1,.74,0v.3a2.42,2.42,0,0,1,4.09,1.74V83a.37.37,0,0,1-.74,0V80.55a1.67,1.67,0,1,0-3.35,0V83a.37.37,0,0,1-.74,0Z"/><path class="cls-1" d="M99,82.07a.37.37,0,0,1,.37.37.39.39,0,0,1-.12.27,2.61,2.61,0,1,1,0-4,.38.38,0,0,1,.13.29.37.37,0,0,1-.37.37.36.36,0,0,1-.24-.08,1.86,1.86,0,1,0,0,2.81A.36.36,0,0,1,99,82.07Zm-1.9,1a.35.35,0,0,1,.26-.11.37.37,0,0,1,.37.37.44.44,0,0,1,0,.09l-.08.28a1.31,1.31,0,0,1,.32.19.89.89,0,0,1,.32.7.88.88,0,0,1-.33.7,1.16,1.16,0,0,1-.79.28,1.12,1.12,0,0,1-.53-.14l-.42-.25a.4.4,0,0,1-.16-.31.37.37,0,0,1,.57-.32l.36.22a.38.38,0,0,0,.18,0,.52.52,0,0,0,.26-.06.19.19,0,0,0,0-.34.52.52,0,0,0-.26-.06.37.37,0,0,1-.37-.37.38.38,0,0,1,0-.12l.18-.64A.37.37,0,0,1,97.08,83.08Z"/><path class="cls-1" d="M104.61,82.56a2.54,2.54,0,0,1-1.86.78,2.61,2.61,0,1,1,2.61-2.61V83a.37.37,0,0,1-.74,0ZM103,77.2a1.49,1.49,0,0,1-2-.07.38.38,0,0,1-.1-.26.36.36,0,0,1,.11-.26.38.38,0,0,1,.52,0,.71.71,0,0,0,.53.22.73.73,0,0,0,.47-.16,1.42,1.42,0,0,1,1-.37,1.45,1.45,0,0,1,1.06.44.38.38,0,0,1,.1.26.37.37,0,0,1-.37.37.38.38,0,0,1-.26-.1.74.74,0,0,0-1-.06Zm-.26,1.68a1.86,1.86,0,1,0,1.32.54A1.79,1.79,0,0,0,102.75,78.88Z"/><path class="cls-1" d="M111.31,80.74a2.61,2.61,0,1,1-.76-1.84A2.51,2.51,0,0,1,111.31,80.74Zm-2.61-1.86a1.86,1.86,0,1,0,1.32.54A1.79,1.79,0,0,0,108.7,78.88Z"/><path class="cls-1" d="M112.22,83.18a.54.54,0,0,1-.16-.4.56.56,0,0,1,1-.39.53.53,0,0,1,.16.39,2.71,2.71,0,0,1-.4,1.53.28.28,0,0,1-.45.07.27.27,0,0,1-.08-.2.26.26,0,0,1,.08-.2Q112.64,83.62,112.22,83.18Z"/><path class="cls-1" d="M116.7,78.51a.37.37,0,0,1,.74,0v.41a2.54,2.54,0,0,1,1.86-.78,2.62,2.62,0,0,1,1,.19.53.53,0,0,1,.15.1.37.37,0,0,1,.11.27.36.36,0,0,1-.11.26A.37.37,0,0,1,120,79a1.84,1.84,0,0,0-.72-.14,1.86,1.86,0,0,0-1.86,1.86V83a.37.37,0,0,1-.74,0Z"/><path class="cls-1" d="M125.21,82.08a.37.37,0,0,1,.37.37.37.37,0,0,1-.11.26,2.61,2.61,0,1,1,.91-2,.37.37,0,0,1-.37.37h-4.06a1.87,1.87,0,0,0,1.83,1.49,1.75,1.75,0,0,0,1.2-.44A.37.37,0,0,1,125.21,82.08Zm.39-1.71a1.87,1.87,0,0,0-3.66,0Z"/><path class="cls-1" d="M131.59,82.56a2.54,2.54,0,0,1-1.86.78,2.61,2.61,0,1,1,2.61-2.61V83a.37.37,0,0,1-.74,0Zm-1.86-3.68a1.86,1.86,0,1,0,1.32.54A1.79,1.79,0,0,0,129.73,78.88Z"/><path class="cls-1" d="M133.83,78.92l0,0a2.6,2.6,0,1,1-.76,1.84V76.26a.37.37,0,0,1,.74,0Zm1.86,3.68a1.86,1.86,0,1,0-1.32-.54A1.79,1.79,0,0,0,135.69,82.6Z"/><path class="cls-1" d="M140.24,77a.47.47,0,1,1-.14-.33A.45.45,0,0,1,140.24,77Zm-.84,1.49a.37.37,0,0,1,.64-.26.36.36,0,0,1,.11.26V83a.36.36,0,0,1-.11.26.37.37,0,0,1-.64-.26Z"/><path class="cls-1" d="M141.27,76.27a.37.37,0,0,1,.74,0V82.6h.37a.37.37,0,0,1,0,.74h-.74a.37.37,0,0,1-.37-.37Z"/><path class="cls-1" d="M144.71,77a.47.47,0,1,1-.14-.33A.45.45,0,0,1,144.71,77Zm-.84,1.49a.37.37,0,0,1,.64-.26.36.36,0,0,1,.11.26V83a.36.36,0,0,1-.11.26.37.37,0,0,1-.64-.26Z"/><path class="cls-1" d="M148.34,82.6a.37.37,0,0,1,0,.74,1.64,1.64,0,0,1-1.86-1.86V78.88h-.37a.37.37,0,0,1,0-.74h.37V76.27a.36.36,0,0,1,.11-.26.37.37,0,0,1,.64.26v1.86H148a.36.36,0,0,1,.26.11.37.37,0,0,1,0,.53.36.36,0,0,1-.26.11h-.75v2.61A1,1,0,0,0,148.34,82.6Z"/><path class="cls-1" d="M153.64,82.56a2.54,2.54,0,0,1-1.86.78,2.61,2.61,0,1,1,2.61-2.61V83a.37.37,0,0,1-.74,0Zm-1.86-3.68a1.86,1.86,0,1,0,1.32.54A1.79,1.79,0,0,0,151.78,78.88Z"/><path class="cls-1" d="M159.17,82.07a.37.37,0,0,1,.37.37.39.39,0,0,1-.12.27,2.61,2.61,0,1,1,0-4,.38.38,0,0,1,.13.29.37.37,0,0,1-.37.37.36.36,0,0,1-.24-.08,1.86,1.86,0,1,0,0,2.81A.36.36,0,0,1,159.17,82.07Zm-1.9,1a.35.35,0,0,1,.26-.11.37.37,0,0,1,.37.37.44.44,0,0,1,0,.09l-.08.28a1.31,1.31,0,0,1,.32.19.89.89,0,0,1,.32.7.88.88,0,0,1-.33.7,1.16,1.16,0,0,1-.79.28,1.12,1.12,0,0,1-.53-.14l-.42-.25a.4.4,0,0,1-.16-.31.37.37,0,0,1,.57-.32l.36.22a.38.38,0,0,0,.18,0,.52.52,0,0,0,.26-.06.19.19,0,0,0,0-.34.52.52,0,0,0-.26-.06A.37.37,0,0,1,157,84a.38.38,0,0,1,0-.12l.18-.64A.37.37,0,0,1,157.27,83.08Z"/><path class="cls-1" d="M164.8,82.56a2.54,2.54,0,0,1-1.86.78,2.61,2.61,0,1,1,2.61-2.61V83a.37.37,0,0,1-.74,0Zm-1.6-5.36a1.49,1.49,0,0,1-2-.07.38.38,0,0,1-.1-.26.36.36,0,0,1,.11-.26.38.38,0,0,1,.52,0,.71.71,0,0,0,.53.22.73.73,0,0,0,.47-.16,1.42,1.42,0,0,1,1-.37,1.45,1.45,0,0,1,1.06.44.38.38,0,0,1,.1.26.37.37,0,0,1-.37.37.38.38,0,0,1-.26-.1.74.74,0,0,0-1-.06Zm-.26,1.68a1.86,1.86,0,1,0,1.32.54A1.79,1.79,0,0,0,162.94,78.88Z"/><path class="cls-1" d="M171.5,80.74a2.61,2.61,0,1,1-.76-1.84A2.51,2.51,0,0,1,171.5,80.74Zm-2.61-1.86a1.86,1.86,0,1,0,1.32.54A1.79,1.79,0,0,0,168.89,78.88Z"/><path class="cls-2" d="M82.68,96.39a8.23,8.23,0,0,1,5.66,10.13,8.5,8.5,0,0,1-4.12,5.12,55.17,55.17,0,0,1-39.79,3.12A55.34,55.34,0,0,1,9.94,87.52,55.34,55.34,0,0,1,4.82,43.86,55.33,55.33,0,0,1,32.07,9.36,55.34,55.34,0,0,1,75.73,4.24,55.18,55.18,0,0,1,108,27.76a8.19,8.19,0,0,1,1,6.9,8.23,8.23,0,0,1-10.13,5.66,8,8,0,0,1-4.53-3.2A39.3,39.3,0,0,0,71.26,20a39.53,39.53,0,0,0-31.19,3.64A39.54,39.54,0,0,0,20.61,48.33a39.53,39.53,0,0,0,3.64,31.2A39.54,39.54,0,0,0,48.91,99,39.15,39.15,0,0,0,77.4,96.6,8.05,8.05,0,0,1,82.68,96.39Z"/><path class="cls-1" d="M67.67,93a.37.37,0,0,1,.37.37.37.37,0,0,1-.11.26,2.6,2.6,0,1,1,.9-2,.37.37,0,0,1-.37.37h-4a1.86,1.86,0,0,0,1.82,1.48,1.75,1.75,0,0,0,1.19-.44A.36.36,0,0,1,67.67,93Zm.39-1.7a1.86,1.86,0,0,0-3.64,0Z"/><path class="cls-1" d="M72.36,89.43a.36.36,0,0,1,.11-.26.37.37,0,0,1,.63.26v.41a2.53,2.53,0,0,1,1.85-.78,2.6,2.6,0,0,1,1,.18.5.5,0,0,1,.15.1.37.37,0,0,1,.11.26.37.37,0,0,1-.37.37.35.35,0,0,1-.16,0,1.86,1.86,0,0,0-.72-.14,1.85,1.85,0,0,0-1.85,1.85v2.22a.35.35,0,0,1-.11.26.37.37,0,0,1-.63-.26Z"/><path class="cls-1" d="M80.82,93a.37.37,0,0,1,.37.37.37.37,0,0,1-.11.26,2.6,2.6,0,1,1,.9-2,.37.37,0,0,1-.37.37h-4a1.86,1.86,0,0,0,1.82,1.48,1.75,1.75,0,0,0,1.19-.44A.36.36,0,0,1,80.82,93Zm.39-1.7a1.86,1.86,0,0,0-3.64,0Z"/><path class="cls-1" d="M83.93,87.95a.46.46,0,1,1-.14-.33A.45.45,0,0,1,83.93,87.95Zm-.83,1.48a.37.37,0,0,1,.63-.26.36.36,0,0,1,.11.26v4.44a.37.37,0,0,1-.63.26.35.35,0,0,1-.11-.26Z"/><path class="cls-1" d="M84.94,89.43a.36.36,0,0,1,.11-.26.37.37,0,0,1,.63.26v.3a2.41,2.41,0,0,1,4.07,1.74v2.41a.35.35,0,0,1-.11.26.37.37,0,0,1-.63-.26V91.47a1.67,1.67,0,0,0-3.33,0v2.41a.35.35,0,0,1-.11.26.37.37,0,0,1-.63-.26Z"/><path class="cls-1" d="M92.75,93.5a.37.37,0,0,1,0,.74,1.64,1.64,0,0,1-1.85-1.85V89.8h-.37a.37.37,0,0,1-.26-.63.36.36,0,0,1,.26-.11h.37V87.21a.37.37,0,0,1,.74,0v1.85h.74a.35.35,0,0,1,.26.11.37.37,0,0,1-.26.63h-.74v2.59A1,1,0,0,0,92.75,93.5Z"/><path class="cls-1" d="M97.59,93a.37.37,0,0,1,.37.37.37.37,0,0,1-.11.26,2.6,2.6,0,1,1,.9-2,.37.37,0,0,1-.37.37h-4a1.86,1.86,0,0,0,1.82,1.48,1.75,1.75,0,0,0,1.19-.44A.36.36,0,0,1,97.59,93Zm.39-1.7a1.86,1.86,0,0,0-3.64,0Z"/><path class="cls-1" d="M103.94,93.47l0,0a2.59,2.59,0,1,1,.76-1.83v2.59a2,2,0,0,1-.58,1.41,2.78,2.78,0,0,1-3.93,0,2.77,2.77,0,0,1-.49-.64.33.33,0,0,1-.06-.19.37.37,0,0,1,.37-.37.37.37,0,0,1,.26.11l.08.11a2,2,0,0,0,.36.47,2,2,0,0,0,2.88,0,1.39,1.39,0,0,0,.37-.88Zm-1.85-3.67a1.85,1.85,0,1,0,1.31.54A1.78,1.78,0,0,0,102.09,89.8Z"/><path class="cls-1" d="M105.42,89.43a.36.36,0,0,1,.11-.26.37.37,0,0,1,.63.26v.41a2.53,2.53,0,0,1,1.85-.78,2.6,2.6,0,0,1,1,.18.5.5,0,0,1,.15.1.37.37,0,0,1,.11.26.37.37,0,0,1-.37.37.35.35,0,0,1-.16,0,1.86,1.86,0,0,0-.72-.14,1.85,1.85,0,0,0-1.85,1.85v2.22a.35.35,0,0,1-.11.26.37.37,0,0,1-.63-.26Z"/><path class="cls-1" d="M114.31,93.47a2.53,2.53,0,0,1-1.85.78,2.59,2.59,0,1,1,2.59-2.59v2.22a.37.37,0,0,1-.63.26.35.35,0,0,1-.11-.26Zm-1.85-3.67a1.85,1.85,0,1,0,1.31.54A1.78,1.78,0,0,0,112.46,89.8Z"/><path class="cls-1" d="M119.82,93a.37.37,0,0,1,.37.37.39.39,0,0,1-.12.27,2.59,2.59,0,1,1,0-3.93.37.37,0,0,1,.13.29.37.37,0,0,1-.61.29,1.85,1.85,0,1,0-1.21,3.24,1.76,1.76,0,0,0,1.21-.45A.37.37,0,0,1,119.82,93Zm-1.89,1a.35.35,0,0,1,.26-.11.37.37,0,0,1,.37.37.34.34,0,0,1,0,.09l-.08.28a1.26,1.26,0,0,1,.32.19.9.9,0,0,1,0,1.39,1.17,1.17,0,0,1-.79.28,1.12,1.12,0,0,1-.53-.14l-.42-.25a.39.39,0,0,1-.16-.31.36.36,0,0,1,.11-.26.38.38,0,0,1,.46-.05l.36.22a.38.38,0,0,0,.18,0,.51.51,0,0,0,.26-.06.18.18,0,0,0,0-.34.51.51,0,0,0-.26-.06.37.37,0,0,1-.37-.37.42.42,0,0,1,0-.12l.18-.63A.39.39,0,0,1,117.93,94Z"/><path class="cls-1" d="M125.42,93.47a2.53,2.53,0,0,1-1.85.78,2.59,2.59,0,1,1,2.59-2.59v2.22a.37.37,0,0,1-.63.26.35.35,0,0,1-.11-.26Zm-1.59-5.34a1.48,1.48,0,0,1-2-.06.37.37,0,0,1,.53-.53.7.7,0,0,0,.52.22.72.72,0,0,0,.46-.16,1.49,1.49,0,0,1,2,.07.37.37,0,0,1,.1.26.37.37,0,0,1-.37.37.38.38,0,0,1-.26-.1.7.7,0,0,0-.52-.22A.72.72,0,0,0,123.82,88.13Zm-.26,1.67a1.85,1.85,0,1,0,1.31.54A1.78,1.78,0,0,0,123.57,89.8Z"/><path class="cls-1" d="M132.08,91.65a2.59,2.59,0,1,1-.76-1.83A2.49,2.49,0,0,1,132.08,91.65Zm-2.59-1.85a1.85,1.85,0,1,0,1.31.54A1.78,1.78,0,0,0,129.49,89.8Z"/></svg>