<svg id="Camada_1" data-name="Camada 1" xmlns="http://www.w3.org/2000/svg" viewBox="0 0 174 119"><defs><style>.cls-1{fill:#3c393a;}.cls-2{fill:#7fbde9;}</style></defs><title>Prancheta 1</title><path class="cls-1" d="M49.08,71.62a1.84,1.84,0,0,1,1.84,1.84,1.91,1.91,0,0,1-.58,1.36,12.89,12.89,0,0,1-17.5-.67,12.88,12.88,0,0,1,0-18.21,12.89,12.89,0,0,1,17.5-.67A1.84,1.84,0,0,1,51,56.69a1.85,1.85,0,0,1-1.84,1.84A1.79,1.79,0,0,1,48,58.12a9.17,9.17,0,0,0-12.53.41,9.2,9.2,0,0,0,6.51,15.7,8.78,8.78,0,0,0,6-2.25A1.8,1.8,0,0,1,49.08,71.62Z"/><path class="cls-1" d="M78.74,76.08a1.84,1.84,0,0,1-3.68,0V74.58A12,12,0,0,1,54.82,66V54a1.84,1.84,0,0,1,3.68,0V66a8.28,8.28,0,0,0,16.55,0V54a1.84,1.84,0,0,1,3.68,0Z"/><path class="cls-1" d="M88.39,46.65A2.31,2.31,0,1,1,87.72,45,2.22,2.22,0,0,1,88.39,46.65ZM84.25,54a1.84,1.84,0,0,1,3.68,0V76.08a1.84,1.84,0,0,1-3.68,0Z"/><path class="cls-1" d="M115.53,42.92a1.84,1.84,0,0,1,3.68,0V65a12.88,12.88,0,1,1-22-9.11,12.88,12.88,0,0,1,18.21,0l.09.09Zm0,22.12a9.19,9.19,0,1,0-2.69,6.51A8.87,8.87,0,0,0,115.53,65Z"/><path class="cls-1" d="M145,74.05a12.56,12.56,0,0,1-9.2,3.86A12.87,12.87,0,0,1,122.88,65a12.88,12.88,0,1,1,25.75,0v11a1.84,1.84,0,0,1-3.68,0Zm-9.2-18.21a9.2,9.2,0,0,0-6.51,15.7,9.2,9.2,0,0,0,13-13A8.86,8.86,0,0,0,135.76,55.84Z"/><path class="cls-1" d="M152.31,54A1.84,1.84,0,0,1,156,54v2a12.56,12.56,0,0,1,9.2-3.86,13,13,0,0,1,4.94.92,2.37,2.37,0,0,1,.76.48,1.83,1.83,0,0,1,.53,1.31,1.84,1.84,0,0,1-2.65,1.66,9.12,9.12,0,0,0-3.59-.69A9.18,9.18,0,0,0,156,65v11a1.84,1.84,0,0,1-3.68,0Z"/><path class="cls-2" d="M82.76,96.39a8.23,8.23,0,0,1,5.66,10.13,8.5,8.5,0,0,1-4.12,5.12,55.17,55.17,0,0,1-39.79,3.12A55.34,55.34,0,0,1,10,87.52,55.34,55.34,0,0,1,4.9,43.86,55.33,55.33,0,0,1,32.15,9.36,55.34,55.34,0,0,1,75.81,4.24a55.18,55.18,0,0,1,32.25,23.52,8.19,8.19,0,0,1,1,6.9A8.23,8.23,0,0,1,99,40.32a8,8,0,0,1-4.53-3.2A39.3,39.3,0,0,0,71.34,20a39.53,39.53,0,0,0-31.19,3.64A39.54,39.54,0,0,0,20.69,48.33a39.53,39.53,0,0,0,3.64,31.2A39.54,39.54,0,0,0,49,99,39.15,39.15,0,0,0,77.48,96.6,8.05,8.05,0,0,1,82.76,96.39Z"/></svg>