<svg id="Layer_1" data-name="Layer 1" xmlns="http://www.w3.org/2000/svg" viewBox="0 0 100.75 100.75"><defs><style>.cls-1{fill:#7fbde9;stroke-width:3px;}.cls-1,.cls-2{stroke:#7fbde9;stroke-miterlimit:10;}.cls-2{fill:none;stroke-linecap:round;stroke-width:6px;}</style></defs><title>Prancheta 1</title><path class="cls-1" d="M93.92,45.12,52,9.31a1.5,1.5,0,0,0-2,0L9.05,45a1.51,1.51,0,0,0,2,2.26l8.84-7.69v48a1.5,1.5,0,0,0,1.5,1.5h58.7a1.5,1.5,0,0,0,1.5-1.5v-49L92,47.4a1.5,1.5,0,0,0,1.95-2.28ZM78.59,86H22.86V37L51,12.43,78.59,36Z"/><line class="cls-2" x1="34.13" y1="66.89" x2="47.29" y2="75.2"/><line class="cls-2" x1="47.5" y1="75.25" x2="68.5" y2="43.25"/></svg>