<svg id="Layer_1" data-name="Layer 1" xmlns="http://www.w3.org/2000/svg" viewBox="0 0 100.75 100.75"><defs><style>.cls-1{fill:#7fbde9;}</style></defs><title>Prancheta 1</title><path class="cls-1" d="M87.85,53.66A13.05,13.05,0,1,0,71.54,66.27V70a16.36,16.36,0,1,1-32.71,0h0a28.84,28.84,0,0,1,9.79-20.46h-.44A22.75,22.75,0,0,0,58.49,30.82V17.68A9.79,9.79,0,0,0,48.7,7.89H43.76a3.26,3.26,0,0,0,0,6.53h4.85a3.26,3.26,0,0,1,3.26,3.26V30.82h0A16.31,16.31,0,0,1,35.65,47.13v2.38h0V47.13a16.31,16.31,0,0,1-16.4-16.23v-.09h0V17.68a3.26,3.26,0,0,1,3.26-3.26H27.1a3.26,3.26,0,0,0,0-6.53H22.51a9.79,9.79,0,0,0-9.61,9.79V30.82a22.75,22.75,0,0,0,9.7,18.69h0A28.83,28.83,0,0,1,32.3,70a22.88,22.88,0,1,0,45.77,0v-3.7A13.05,13.05,0,0,0,87.85,53.66ZM74.62,60.19a6.53,6.53,0,1,1,6.53-6.53h0A6.53,6.53,0,0,1,74.62,60.19Z"/></svg>