<svg id="Camada_1" data-name="Camada 1" xmlns="http://www.w3.org/2000/svg" viewBox="0 0 100 100"><defs><style>.cls-1{fill:none;stroke:#7fbde9;stroke-linecap:round;stroke-linejoin:round;stroke-width:4px;}</style></defs><title>Prancheta 1</title><g id="_27.-Team" data-name="27.-Team"><path id="Layer-1" class="cls-1" d="M36.22,37A5.47,5.47,0,0,0,35,41.77,6.72,6.72,0,0,0,38.5,46s4.29,5.67,4.29,9,0,4.58-1.15,7.33-23.73,6-24.69,22.26h66.1c-1-16.21-23.54-19.51-24.69-22.26s-1.15-4-1.15-7.33,4.29-9,4.29-9A6.72,6.72,0,0,0,65,41.78,5.47,5.47,0,0,0,63.78,37c1.63-5,4.88-22.08-13.6-22.7h-.25C31.34,14.9,34.59,32,36.22,37Z"/><path id="Layer-2" class="cls-1" d="M8.25,73.79C13.67,70,20.44,68.51,21,67.2c.91-2.18.91-3.19.91-5.8s-3.4-7.1-3.4-7.1a5.32,5.32,0,0,1-2.78-3.38,4.33,4.33,0,0,1,1-3.79c-1.29-3.93-3.86-17.48,10.86-18h.19A14.28,14.28,0,0,1,35,31.09,28,28,0,0,0,36.22,37,5.47,5.47,0,0,0,35,41.77,6.72,6.72,0,0,0,38.5,46l.24.33c-.08.28-.16.53-.23.76a4.33,4.33,0,0,1,1,3.79,5.32,5.32,0,0,1-2.78,3.38s-3.4,4.49-3.4,7.1a13.13,13.13,0,0,0,.53,4.8c-7,3-16.28,8.14-16.89,18.4h66.1C82.43,74.15,72.83,69.06,65.77,66a13.4,13.4,0,0,0,.49-4.68c0-2.61-3.4-7.1-3.4-7.1a5.32,5.32,0,0,1-2.78-3.38,4.33,4.33,0,0,1,1-3.79L61,46.79c.33-.47.54-.75.54-.75A6.72,6.72,0,0,0,65,41.78,5.47,5.47,0,0,0,63.78,37,28.11,28.11,0,0,0,65,30.8a14.93,14.93,0,0,1,6.91-1.69h.19c14.63.49,12.05,14,10.77,18a4.33,4.33,0,0,1,1,3.79,5.32,5.32,0,0,1-2.78,3.38s-3.4,4.49-3.4,7.1,0,3.62.91,5.8c.57,1.35,7.68,2.87,13.17,6.91V84.78h-38v0H8.25Z"/></g></svg>